<?xml version="1.0" encoding="utf-8"?>
<!-- Generator: Adobe Illustrator 24.3.0, SVG Export Plug-In . SVG Version: 6.00 Build 0)  -->
<svg version="1.1" id="Layer_1" xmlns="http://www.w3.org/2000/svg" xmlns:xlink="http://www.w3.org/1999/xlink" x="0px" y="0px"
	 viewBox="0 0 50.95 85.41" style="enable-background:new 0 0 50.95 85.41;" xml:space="preserve">
<style type="text/css">
	.st0{fill:#FFFFFF;stroke:#8298BC;stroke-width:0.75;stroke-miterlimit:10;}
	.st1{fill:none;stroke:#8298BC;stroke-width:0.75;stroke-linecap:round;stroke-linejoin:round;stroke-miterlimit:10;}
	.st2{fill:none;stroke:#8298BC;stroke-width:0.3213;stroke-linecap:round;stroke-linejoin:round;stroke-miterlimit:10;}
	.st3{fill:none;stroke:#8298BC;stroke-width:0.9638;stroke-linecap:round;stroke-linejoin:round;stroke-miterlimit:10;}
	.st4{fill:#FFFFFF;stroke:#8298BC;stroke-width:0.3213;stroke-linecap:round;stroke-linejoin:round;stroke-miterlimit:10;}
	.st5{fill:#8298BC;}
	.st6{fill:#FFFFFF;}
</style>
<g>
	<g>
		<g>
			<g>
				<path class="st0" d="M24.84,63.06c-5.98,0-8.31-3.79-8.18-4.41l-3.34-2.28c0,0-1.34,0.31-2.72,0.55c0,0,0.78-2.01-0.6-3.09
					c0,0-1.08,0.65-2.01-0.43c0,0,1.59-5.63,0.64-8.52c0,0-1.31-0.01-1.51-6.32c0,0-2.5-5.42-0.7-7.97c0,0-1.49-3.95,1.34-11.47
					C11.71,8.58,17.8,6.81,22.3,7.49c0,0,3.9-3,8.95-1.64s7.47,2.38,8.48,6.32c0,0,6.37,1.72,7.88,9c1.51,7.28-2.2,16.06-2.2,16.06
					s-0.43,7.59-2.65,8.64c0,0-0.13,7.39-2.15,10.11c0,0-0.24-1.9-1-1.72l-1.77,2.41c0,0-0.9-3.59-0.27-2.72
					c0.33,0.45-2,2.57-5.05,4.96C30.15,60.76,27.44,63.06,24.84,63.06z"/>
				<path class="st1" d="M29.18,60.57c3.09-0.87,6.93-4.58,7.56-5.43c1.59-2.13,3.12-7.83,3.12-7.83c1.77-0.17,1.71-4.28,2.55-5.76
					s1.52-4.61,1.52-4.61"/>
				<path class="st1" d="M9.09,44.69c0.3,1.76,1.26,4.68,1.92,6.75c1.3,4.14,6.78,7.81,6.78,7.81"/>
				<path class="st2" d="M37.84,23.46c0,0,0.26,1.85,0.94,2.96c0,0,0.34,4.65,1.73,5.76c0,0,0.49,6.61,0.32,8.51
					c-0.03,0.32,0.75-1.13,1.3-2.34c0.58-1.29,0.8-2.65,0.8-2.65s0.25,0.81,1.56,1.25"/>
				<path class="st2" d="M15.44,24.77c2.66-1.22,3.77-3.92,18.32-2.14"/>
				<path class="st2" d="M37.89,53.66c0,0.62,0.03,0.24-1.09,3.62l0.86-0.7"/>
				<path class="st2" d="M42.69,43.28c0,0.55-0.07,3.03-0.07,3.03"/>
				<path class="st2" d="M11.43,54.61c0,0.4,0.59,1.01-0.64,2.21"/>
				<path class="st2" d="M40.73,51.99c0.19,0.81-0.01,0.65-0.07,3.31"/>
				<path class="st3" d="M15.53,56.42c0.93,2.17,2.99,5.88,6.38,6.25c0.81,0.08,4.43,0.15,5.11,0.03c3.34-0.61,5.01-3.29,5.71-4.84"
					/>
				<path class="st4" d="M13.44,50.69c0.02,0.05,1.72,4.86,2.1,5.74c0.93,2.17,2.99,5.88,6.38,6.25c0.81,0.08,4.43,0.15,5.11,0.03
					c3.34-0.61,5.01-3.29,5.71-4.84c0.3-0.66,2.05-3.63,1.82-3.29"/>
				<ellipse class="st4" cx="8.08" cy="44.88" rx="1.36" ry="1.35"/>
				<ellipse class="st4" cx="40.74" cy="46.31" rx="1.36" ry="1.35"/>
				<path class="st2" d="M38.25,17.37c0.95-0.43,2.52-1.05,3.79-0.37"/>
				<path class="st2" d="M43.51,22.98c-0.82-1.36-3.62-2.1-4.63-1.92c-1.01,0.18,0.06-2.16,4.17-1.05"/>
				<path class="st2" d="M8.72,29.74c0.81-1.08,4.58-4.26,7.17-5.19"/>
				<path class="st2" d="M33.41,9.06c1.6,2.27,3.72,5.51,3.77,6.5c0.06,1.31-5.37-4.93-13.64-4.13"/>
				<path class="st2" d="M36.11,19.05c-0.74-0.46-7.55-8.91-21.59,2.86"/>
				<path class="st2" d="M9.48,52.22c0,0,0.1,0.63-0.72,1.37"/>
			</g>
			<path class="st2" d="M16.11,24.49C14.04,26.3,9,34.66,8.72,38.56c0,0-0.28,0.98,0.36,2.74c0.4,1.11-1.84-2.74-2.73-4.87"/>
			<path class="st4" d="M12.31,45.47c0.54,0.37,0.6,1.75,0.6,1.75"/>
			<path class="st2" d="M30.82,43c0.36,0.92,2.95,4.14,3.38,4.65c0.67,0.79,0.02,1.98,0.02,1.98"/>
			<path class="st2" d="M20.22,42.6c-0.07,0.05-0.94,0.3-1.18,0.59c-0.9,1.08-2.48,3.28-3.16,3.78c-0.87,0.62-0.23,2.2-0.23,2.2"/>
			<path class="st2" d="M22.8,42.75c-0.02,0.59-0.02,1.14,0.47,1.77c0.45,0.58,1.09,0.95,1.57,0.95c0.93,0,1.48-1.08,1.67-1.22
				c0.34-0.24,0.66-0.43,1.63-0.24c0.58,0.11,1.26-0.87,0.95-1.86"/>
			<path class="st2" d="M22.1,41.68c-0.2-0.28-0.7,0.36-0.7,0.36c-0.24,0.24-0.8,0.97-0.08,1.64c0.62,0.58,1.2-0.4,1.84,0.71"/>
			<path class="st5" d="M18.05,49.92c3.05-2.36,5.89-1.79,7.1-1.44c0.07,0.02,0.15,0.03,0.22,0c0.81-0.3,4.23-0.44,6.89,1.14
				c0.35,0.21-1.24,1.15-2.16,1.93c-0.43,0.37-1.31,0.69-1.83,0.89c-0.9,0.33-1.92,0.35-3.12,0.43c-1.09,0.08-2.58-0.04-3.61-0.48
				c-0.69-0.3-1.25-0.5-1.98-1.03C18.7,50.75,17.82,50.11,18.05,49.92z"/>
			<path class="st6" d="M20.47,50.31c0.82-0.11,8.05,0.02,9.37,0.14c1.03,0.09,1.22-0.83,1.04-0.99c-0.18-0.16-3.69-0.66-6.07-0.66
				c-2.38-0.01-5.38,0.53-5.68,0.69C18.83,49.65,19.44,50.45,20.47,50.31z"/>
			<path class="st6" d="M22.19,50.9c0.24-0.14,4.8-0.16,5.73,0c0.93,0.16-2.56,0.49-3.12,0.48C24.25,51.35,21.87,51.07,22.19,50.9z"
				/>
			<path class="st5" d="M28.98,32.86c0.21,0.51,1.85-0.04,2.64-0.52c0.56-0.34,0.83-1.09,2.58-1.09c1.03,0.01,2.71,1.89,3.16,2.09
				c0.21,0.09-0.08-0.94-1.53-1.79c-1.27-0.74-1.16-0.81-3.78-0.36c-1.76,0.3-2.36,0.53-2.74,0.81
				C29.19,32.1,28.93,32.76,28.98,32.86z"/>
			<path class="st5" d="M12.61,33.22c0,0.17,1.53-1.7,2.82-1.86c1.76-0.22,2.57,0.41,2.93,0.72c0.36,0.3,1.22,0.66,1.67,0.75
				c0.99,0.19,1.27,0.06,1.18-0.4c-0.05-0.24-0.05-0.46-0.34-0.59c-0.3-0.14-0.6-0.22-1.09-0.36c-1.17-0.34-3.65-0.66-4.36-0.52
				C14.95,31.03,12.61,32.52,12.61,33.22z"/>
			<path class="st2" d="M27.92,33.04c-0.41,0.27-1.13,0.3-1.23,1.36c-0.09,1.06,0.01,4.09,0.01,4.09"/>
			<path class="st2" d="M15.11,35.73c0.41,0.19,2.6,0.93,4.96,0.72"/>
			<path class="st2" d="M14.35,35.72c0.27-0.31,1.08-1.03,2.08-1.35c1.09-0.36,3.25,0.02,3.81,0.48c0.36,0.29,1.08,1.06,1.08,1.06"
				/>
			<path class="st2" d="M15.25,33.96c0.08,0.09,0.52,0.64,0.52,0.64"/>
			<path class="st2" d="M14.3,34.77c-0.02,0.1,0.61,0.4,0.61,0.4"/>
			<path class="st2" d="M16.45,33.65c0.01,0.16,0.24,0.62,0.24,0.62"/>
			<path class="st5" d="M17.24,34.36c-0.17,0.21-0.58,0.97,0.09,1.73l0.01,0.14l1.64,0.2c0,0,1.13-0.81,0.48-1.82L17.24,34.36z"/>
			<path class="st6" d="M18.83,35.4c0.31,0.11-0.33,0.71-0.74,0.11C17.72,35,18.32,35.22,18.83,35.4z"/>
			<path class="st2" d="M19.15,34.1c0,0.05-0.21,0.41-0.21,0.41"/>
			<line class="st2" x1="15.48" y1="36.36" x2="15.9" y2="36.01"/>
			<line class="st2" x1="16.63" y1="36.57" x2="16.83" y2="36.32"/>
			<path class="st2" d="M18.44,37.82c-0.63,0.03-1.95-0.07-3.15-0.47"/>
			<path class="st2" d="M28.9,36.36c0.11-0.21,0.59-1.25,1.76-1.54c1.27-0.31,2.55-0.33,3.38,0.1c0.38,0.2,1.31,1.16,1.31,1.16"/>
			<path class="st2" d="M29.86,36.69c0.49,0.14,3.14,0.34,4.75-0.48"/>
			<path class="st5" d="M30.94,34.99c-0.15,0.21-0.62,1.04,0.19,1.76h1.03l0.49-0.03c0,0,1.19-0.74,0.08-1.89l-0.95,0.05
				L30.94,34.99z"/>
			<path class="st6" d="M32.21,35.64c0.33,0.02-0.13,0.77-0.69,0.3C31.04,35.54,31.68,35.6,32.21,35.64z"/>
			<path class="st2" d="M33.97,37c-0.12-0.21-0.45-0.41-0.45-0.41"/>
			<path class="st2" d="M36.03,38c0.57,0.14,1.01,0.21,1.41,0.73"/>
			<path class="st2" d="M11.12,35.66c0.46-0.11,1.15-0.27,1.44-0.11c0.3,0.17-1.53,0.73-1.8,1.19"/>
		</g>
		<path class="st2" d="M35.35,34.98c0,0-0.65,0.48-0.71,0.42"/>
		<path class="st2" d="M33.97,34.28c-0.09,0.16-0.31,0.49-0.31,0.49"/>
		<path class="st2" d="M30.28,34.36c0,0.14,0.21,0.47,0.21,0.47"/>
	</g>
</g>
<rect x="-34.74" y="70.83" class="st5" width="13.08" height="15.67"/>
</svg>
